<?xml version="1.0" standalone="no"?>
<!DOCTYPE svg PUBLIC "-//W3C//DTD SVG 20010904//EN"
 "http://www.w3.org/TR/2001/REC-SVG-20010904/DTD/svg10.dtd">
<svg version="1.0" xmlns="http://www.w3.org/2000/svg"
 width="1280.000000pt" height="1280.000000pt" viewBox="0 0 1280.000000 1280.000000"
 preserveAspectRatio="xMidYMid meet">
<metadata>
Created by potrace 1.14, written by Peter Selinger 2001-2017
</metadata>
<g transform="translate(0.000000,1280.000000) scale(0.100000,-0.100000)"
fill="#000000" stroke="none">
<path d="M8291 11100 c-8 -6 -22 -37 -26 -60 -2 -8 -6 -25 -9 -37 -3 -13 -8
-31 -10 -40 -3 -10 -13 -48 -24 -85 -11 -37 -17 -70 -14 -73 3 -3 0 -5 -7 -5
-7 0 -10 -4 -7 -8 3 -4 -11 -64 -30 -133 -76 -277 -85 -309 -89 -326 -3 -10
-9 -36 -15 -58 -6 -22 -13 -51 -16 -64 -3 -13 -9 -32 -15 -43 -5 -10 -8 -18
-5 -18 2 0 -3 -21 -11 -47 -8 -27 -16 -55 -18 -63 -2 -8 -13 -51 -24 -95 -12
-44 -23 -87 -25 -95 -2 -8 -14 -51 -26 -95 -12 -44 -35 -128 -51 -188 -16 -59
-53 -198 -84 -310 -30 -111 -56 -211 -58 -222 -1 -11 -6 -26 -11 -33 -4 -7 -9
-23 -11 -35 -2 -12 -9 -40 -15 -62 -6 -22 -12 -47 -14 -55 -2 -8 -12 -44 -21
-80 -9 -36 -18 -69 -19 -75 -1 -5 -4 -14 -8 -20 -6 -10 -13 -42 -24 -99 -3
-16 -8 -34 -12 -40 -3 -6 -8 -19 -9 -28 -2 -10 -17 -68 -34 -130 -17 -62 -32
-117 -33 -123 -1 -5 -10 -35 -18 -65 -9 -30 -19 -69 -21 -87 -3 -17 -9 -38
-13 -45 -5 -7 -9 -15 -9 -18 -2 -14 -27 -117 -32 -130 -3 -8 -7 -19 -8 -25 -2
-5 -10 -37 -19 -70 -10 -33 -19 -73 -22 -90 -4 -16 -10 -38 -15 -48 -6 -9 -7
-22 -4 -27 3 -5 1 -11 -5 -15 -6 -4 -8 -10 -5 -15 3 -5 1 -11 -5 -15 -6 -4 -8
-11 -5 -16 4 -5 3 -15 -2 -21 -4 -7 -8 -18 -9 -24 -1 -6 -9 -36 -17 -65 -9
-30 -19 -69 -22 -88 -3 -19 -9 -41 -14 -50 -7 -13 -18 -54 -36 -131 -2 -8 -18
-67 -35 -130 -18 -63 -34 -122 -36 -130 -2 -8 -10 -40 -18 -70 -8 -30 -20 -75
-26 -100 -7 -25 -14 -52 -18 -60 -3 -8 -7 -22 -8 -30 -4 -21 -10 -42 -17 -60
-3 -8 -9 -28 -13 -45 -4 -16 -9 -37 -11 -45 -2 -8 -5 -25 -6 -37 -1 -13 -5
-23 -8 -23 -3 0 -6 -6 -6 -12 -1 -7 -11 -47 -23 -88 -12 -41 -21 -83 -21 -92
0 -10 -5 -20 -10 -23 -5 -4 -7 -11 -4 -16 4 -5 1 -9 -5 -9 -6 0 -9 -4 -6 -8 3
-5 -2 -33 -10 -63 -8 -30 -16 -61 -18 -69 -9 -35 -28 -107 -37 -135 -12 -41
-81 -294 -83 -309 -1 -6 -5 -17 -9 -23 -5 -7 -6 -13 -3 -13 3 0 -1 -18 -9 -40
-8 -22 -14 -41 -14 -43 1 -1 -4 -22 -11 -47 -7 -25 -14 -54 -17 -65 -8 -38
-11 -50 -13 -50 -1 0 -3 -7 -5 -15 -2 -8 -19 -76 -40 -150 -20 -74 -38 -146
-41 -160 -2 -14 -7 -32 -11 -40 -3 -8 -7 -19 -8 -25 -2 -5 -8 -30 -15 -55 -7
-25 -14 -52 -15 -60 -2 -8 -13 -48 -25 -89 -11 -41 -32 -115 -45 -165 -13 -50
-31 -118 -41 -151 -9 -33 -17 -64 -19 -70 -5 -25 -20 -78 -47 -175 -28 -100
-32 -116 -42 -167 -3 -12 -9 -30 -15 -41 -6 -11 -8 -22 -5 -25 3 -3 2 -12 -2
-19 -5 -7 -10 -24 -12 -38 -2 -13 -8 -30 -14 -37 -6 -7 -8 -13 -5 -13 3 0 1
-15 -4 -32 -6 -18 -12 -40 -14 -48 -9 -40 -27 -107 -32 -120 -8 -18 -7 -15
-18 -65 -10 -47 -12 -54 -15 -57 -1 -2 -3 -10 -5 -18 -1 -8 -10 -42 -19 -75
-9 -33 -19 -70 -22 -82 -2 -12 -9 -35 -15 -50 -6 -16 -10 -30 -10 -33 0 -5 -9
-48 -14 -65 -1 -5 -3 -12 -3 -15 0 -3 -5 -18 -11 -33 -6 -15 -13 -40 -16 -55
-3 -15 -12 -52 -20 -82 -9 -30 -18 -62 -20 -70 -2 -8 -4 -15 -5 -15 -2 0 -6
-17 -15 -60 -13 -57 -13 -60 -15 -60 -1 0 -3 -7 -5 -15 -2 -8 -20 -76 -40
-150 -20 -74 -38 -142 -40 -150 -2 -8 -16 -58 -31 -110 -14 -52 -28 -102 -29
-110 -2 -8 -4 -15 -5 -15 -1 0 -3 -7 -5 -15 -2 -12 -27 -105 -39 -145 -1 -5
-6 -28 -11 -50 -4 -22 -11 -47 -16 -56 -4 -9 -10 -27 -13 -40 -3 -13 -9 -39
-15 -56 -5 -18 -8 -33 -5 -33 3 0 0 -8 -5 -18 -6 -11 -12 -31 -15 -46 l-5 -26
697 2 696 3 48 180 c26 99 52 196 57 215 30 105 84 308 87 325 1 11 3 20 4 20
1 0 3 7 5 15 7 27 66 243 106 390 22 80 42 153 45 163 2 9 6 26 9 37 3 11 7
28 9 37 2 10 9 30 15 46 6 15 8 27 6 27 -2 0 0 12 6 28 6 15 12 34 14 42 2 8
8 35 15 60 7 25 14 52 15 60 2 8 4 15 5 15 2 0 9 29 15 60 2 11 11 41 19 68 8
26 12 47 9 47 -3 0 0 6 6 14 6 8 11 18 10 22 -1 5 0 12 1 17 1 4 4 12 5 17 1
6 4 12 5 15 1 3 3 8 4 13 13 56 30 119 34 127 3 5 7 16 7 25 1 8 12 51 24 95
13 44 31 112 41 150 10 39 28 104 39 145 47 168 63 226 67 247 2 12 9 34 14
48 5 14 9 29 9 33 -1 4 0 9 1 12 1 3 3 12 5 20 2 8 8 29 13 47 6 17 8 34 4 37
-3 3 1 6 8 6 7 0 11 2 8 5 -3 3 3 36 14 73 11 37 22 78 25 92 2 14 6 30 7 35
2 6 6 24 10 40 4 17 10 37 13 45 3 8 7 20 8 25 2 6 15 55 30 110 14 55 28 107
30 115 2 8 18 65 35 125 17 61 32 119 34 130 3 11 5 20 6 20 1 0 3 9 5 19 2
11 7 31 11 45 4 14 8 29 9 34 2 4 3 8 5 10 1 1 3 9 5 17 5 22 21 85 45 175 28
103 31 114 37 148 3 15 8 27 12 27 4 0 7 8 7 18 1 9 4 31 9 47 4 17 9 42 12
58 3 15 8 27 12 27 4 0 7 10 8 23 0 12 20 90 42 172 23 83 43 157 45 165 2 8
6 22 9 30 3 8 10 35 16 60 7 25 14 52 16 60 44 158 57 209 61 229 3 14 7 28
10 33 5 8 9 24 20 83 3 16 10 35 16 42 6 7 8 13 4 13 -3 0 -1 11 4 25 5 14 12
36 14 49 5 28 36 145 44 166 3 8 5 18 4 22 -1 4 3 20 9 35 10 26 73 258 84
310 3 12 9 33 14 45 5 13 9 25 9 28 0 3 5 25 12 50 7 25 14 52 16 60 2 8 11
42 20 75 9 33 17 65 18 70 2 6 8 30 15 55 12 43 15 52 25 100 3 11 7 24 10 28
3 5 7 20 10 35 4 15 8 39 12 54 3 15 8 31 12 37 3 6 7 16 7 21 1 13 15 65 22
85 3 8 7 22 8 30 1 8 8 35 15 60 7 25 13 50 15 55 1 6 5 17 8 25 5 14 21 74
32 124 2 10 11 42 19 70 18 63 68 247 70 261 1 6 5 16 10 23 4 7 6 16 3 18 -3
3 1 21 9 40 8 19 12 34 9 34 -2 0 0 12 6 28 6 15 12 34 14 42 2 8 16 60 30
115 15 55 28 107 30 115 2 8 4 15 5 15 1 0 3 7 5 15 1 8 8 35 15 60 7 25 14
52 15 60 2 8 4 15 5 15 1 0 3 7 5 15 1 8 35 134 75 279 40 145 74 271 75 280
2 9 4 16 5 16 1 0 4 11 7 25 7 39 11 55 13 55 1 0 3 7 5 15 2 8 13 49 25 90
11 41 22 84 24 95 2 11 4 20 5 20 2 0 4 11 7 25 2 14 9 36 14 50 5 14 12 36
14 50 3 14 5 25 6 25 1 0 3 7 5 15 1 8 13 51 25 95 12 44 23 85 24 90 1 6 5
19 9 30 3 11 8 31 11 45 3 14 12 50 20 80 9 30 16 57 16 60 0 7 -1369 7 -1379
0z"/>
<path d="M11209 11105 c0 0 -2 -7 -4 -15 -1 -8 -19 -73 -39 -145 -47 -171 -54
-194 -62 -230 -9 -39 -11 -44 -14 -47 -1 -2 -3 -10 -5 -18 -1 -8 -8 -35 -16
-60 -7 -25 -13 -49 -15 -55 -1 -5 -9 -37 -18 -70 -9 -33 -19 -71 -22 -85 -2
-14 -11 -45 -18 -70 -8 -25 -21 -72 -30 -105 -9 -33 -37 -134 -61 -225 -25
-91 -48 -176 -51 -190 -6 -30 -9 -41 -17 -60 -4 -8 -8 -26 -11 -40 -3 -14 -11
-47 -20 -74 -8 -27 -15 -52 -14 -55 0 -3 -1 -8 -2 -11 -1 -3 -3 -12 -5 -20 -2
-8 -18 -67 -35 -130 -18 -63 -34 -122 -36 -130 -1 -8 -22 -82 -44 -165 -22
-82 -43 -158 -45 -168 -2 -10 -7 -27 -10 -37 -3 -10 -8 -27 -10 -37 -7 -31
-47 -177 -52 -193 -3 -8 -7 -22 -8 -30 -2 -8 -8 -30 -13 -48 -6 -18 -11 -35
-11 -37 -1 -8 -5 -20 -19 -70 -6 -22 -13 -49 -15 -60 -2 -11 -7 -27 -10 -35
-4 -8 -9 -28 -12 -45 -7 -33 -9 -43 -18 -65 -5 -15 -24 -87 -33 -127 -2 -12
-8 -33 -13 -45 -5 -13 -9 -26 -10 -30 0 -5 -1 -9 -2 -10 0 -2 -2 -10 -4 -18
-2 -8 -13 -51 -25 -95 -12 -44 -23 -87 -25 -95 -2 -8 -4 -15 -5 -15 -1 0 -3
-9 -5 -20 -2 -11 -23 -88 -46 -170 -22 -83 -43 -157 -45 -165 -2 -8 -8 -33
-14 -55 -6 -22 -12 -47 -14 -55 -2 -8 -10 -35 -17 -60 -7 -25 -13 -49 -15 -55
-10 -47 -46 -183 -51 -195 -3 -8 -7 -22 -9 -30 -2 -8 -20 -73 -39 -145 -20
-71 -37 -137 -39 -145 -2 -8 -9 -35 -16 -60 -7 -25 -14 -52 -15 -60 -2 -8 -4
-15 -5 -15 -1 0 -3 -7 -5 -15 -8 -34 -16 -61 -51 -190 -20 -74 -38 -142 -38
-150 -1 -9 -5 -20 -8 -25 -4 -8 -21 -71 -34 -127 -1 -5 -2 -9 -4 -10 -2 -4 -7
-24 -15 -62 -3 -16 -8 -33 -11 -38 -5 -8 -9 -22 -20 -77 -3 -13 -9 -32 -14
-41 -5 -10 -7 -20 -4 -23 3 -3 2 -12 -2 -19 -5 -7 -9 -17 -10 -23 -5 -24 -81
-307 -139 -515 -6 -22 -25 -93 -29 -110 -2 -8 -10 -35 -16 -60 -7 -25 -13 -53
-12 -62 0 -10 -3 -18 -7 -18 -8 0 -12 -14 -25 -85 -2 -11 -4 -20 -5 -20 -2 0
-4 -7 -6 -15 -17 -70 -23 -92 -34 -128 -5 -18 -10 -36 -11 -40 0 -4 -6 -25
-12 -47 -6 -22 -12 -44 -14 -50 -1 -5 -9 -37 -18 -70 -9 -33 -19 -71 -22 -85
-2 -14 -9 -36 -13 -50 -5 -14 -13 -38 -17 -55 -4 -16 -8 -34 -10 -40 -1 -5
-12 -45 -24 -87 -11 -43 -23 -85 -25 -95 -2 -10 -10 -40 -19 -67 -8 -27 -13
-53 -10 -57 2 -4 0 -10 -5 -13 -5 -3 -12 -23 -16 -43 -3 -21 -13 -57 -21 -80
-7 -24 -16 -56 -19 -72 -3 -17 -9 -40 -14 -53 -5 -13 -9 -27 -10 -33 -3 -17
-22 -89 -28 -105 -3 -8 -7 -26 -9 -39 -2 -13 -6 -31 -10 -40 -8 -17 -9 -24
-17 -61 -3 -14 -20 -77 -37 -140 -18 -63 -34 -122 -35 -130 -13 -53 -87 -328
-92 -340 -3 -8 -7 -19 -8 -25 -2 -5 -11 -39 -20 -75 -9 -36 -19 -72 -20 -80
-2 -8 -4 -15 -5 -15 -1 0 -3 -5 -14 -50 -2 -11 -16 -63 -31 -115 -14 -52 -28
-102 -30 -110 -1 -8 -13 -51 -24 -95 -12 -44 -24 -89 -26 -99 -2 -10 -9 -33
-15 -51 -6 -18 -12 -41 -14 -51 -2 -10 -12 -48 -21 -84 -9 -36 -18 -69 -20
-75 -1 -5 -5 -17 -8 -25 -4 -8 -11 -35 -17 -60 -6 -25 -14 -55 -17 -68 l-5
-22 696 0 696 0 6 27 c4 16 15 62 26 103 11 41 22 81 23 90 2 8 4 15 5 15 1 0
3 8 6 17 8 36 10 43 17 63 3 11 8 31 11 45 3 14 14 59 26 100 12 41 24 83 26
92 8 34 13 54 54 203 23 83 43 157 45 165 2 8 15 58 30 110 14 52 27 102 29
110 2 8 9 35 16 60 7 25 13 50 14 55 1 6 5 16 9 23 5 6 5 17 2 22 -3 6 -2 10
4 10 5 0 8 8 7 17 -2 9 5 39 15 65 9 26 16 48 14 48 -2 0 2 18 10 40 8 22 14
42 15 45 0 3 0 6 1 8 0 1 2 9 4 17 1 8 8 35 15 60 7 25 14 52 15 60 2 8 4 15
5 15 1 0 3 7 5 15 1 8 13 51 25 95 12 44 36 129 52 190 16 60 41 153 54 205
14 52 27 102 29 110 2 8 4 15 5 15 2 0 7 20 15 59 3 16 8 33 11 38 3 5 7 18
10 31 2 12 18 72 34 132 17 61 33 118 35 128 7 24 22 84 30 117 2 8 4 15 5 15
1 0 3 7 5 15 3 16 61 231 101 375 14 50 26 97 28 105 12 48 49 187 54 200 7
19 6 17 17 65 4 22 8 43 7 48 -1 4 3 7 10 7 6 0 9 3 5 6 -3 3 0 26 8 50 7 24
11 44 8 44 -3 0 0 7 7 15 7 8 9 15 6 15 -4 0 -2 8 3 18 8 15 21 68 23 100 1 6
6 12 11 12 6 0 8 3 5 6 -3 3 -2 21 4 41 5 19 11 43 14 52 2 9 15 57 28 106 14
50 38 140 54 200 17 61 35 122 41 138 6 15 9 27 7 27 -2 0 4 28 15 62 10 34
16 64 14 67 -3 2 0 9 5 16 5 7 11 25 13 41 2 17 6 35 10 40 3 6 8 21 11 35 2
13 9 36 15 52 6 15 8 27 5 27 -4 0 -1 6 5 13 6 8 8 17 5 20 -3 3 -2 12 2 19 5
7 9 18 11 23 9 42 15 66 41 161 16 60 33 123 38 139 11 43 11 45 14 48 1 1 3
9 5 17 1 8 8 35 15 60 7 25 13 50 15 55 7 33 19 78 37 135 11 36 21 76 23 90
2 14 4 25 5 25 1 0 3 7 5 15 2 8 13 49 25 90 12 41 22 80 23 85 16 63 40 153
45 165 6 17 8 26 15 60 3 14 20 77 37 140 18 63 34 122 35 130 2 8 4 15 5 15
1 0 3 7 5 16 1 9 10 41 18 70 9 30 18 66 21 81 2 15 7 32 11 38 3 5 8 20 10
32 3 12 26 99 51 193 26 93 47 175 48 180 1 6 5 16 9 23 5 6 5 17 2 22 -3 6
-1 10 6 10 7 0 10 3 7 6 -3 3 -2 21 4 41 5 19 11 43 13 52 16 67 28 109 35
126 6 16 59 214 66 250 1 6 19 69 39 140 45 159 40 142 50 190 4 22 10 45 14
50 3 6 7 17 8 25 1 8 17 65 34 125 16 61 37 137 45 170 9 33 17 67 19 75 2 8
20 74 40 145 43 157 44 160 49 183 2 9 10 37 17 62 7 25 13 50 14 55 2 6 13
46 25 90 12 44 23 87 25 95 2 8 16 58 30 110 48 172 77 285 79 300 1 13 -86
15 -691 15 -381 0 -693 0 -694 0z"/>
<path d="M2797 8920 c-37 -102 -51 -146 -49 -154 1 -4 -1 -13 -6 -20 -6 -6
-13 -27 -17 -46 -4 -19 -11 -41 -16 -50 -11 -22 -44 -134 -41 -142 1 -5 -3 -8
-9 -8 -5 0 -7 -4 -4 -10 3 -5 1 -10 -5 -10 -6 0 -9 -4 -5 -9 3 -5 -3 -33 -14
-63 -11 -29 -38 -111 -61 -183 -22 -71 -68 -213 -101 -314 -34 -102 -63 -196
-66 -210 -2 -14 -8 -30 -14 -37 -5 -6 -6 -14 -2 -17 3 -4 1 -7 -4 -7 -6 0 -10
-8 -9 -17 2 -9 -3 -28 -10 -42 -7 -14 -14 -35 -16 -46 -2 -11 -5 -22 -8 -25
-6 -5 -40 -117 -42 -137 -1 -7 -4 -13 -8 -13 -4 0 -7 -6 -7 -12 0 -7 -21 -80
-48 -161 -35 -108 -52 -147 -61 -143 -8 3 -14 1 -14 -5 0 -6 -6 -7 -12 -2 -18
11 -210 11 -225 0 -7 -5 -13 -6 -13 -1 0 11 -210 11 -227 1 -6 -4 -14 -4 -16
0 -6 10 -528 10 -544 0 -6 -4 -14 -4 -16 0 -6 10 -208 9 -225 -1 -6 -4 -12 -4
-12 1 0 10 -211 10 -228 -1 -6 -4 -12 -4 -12 1 0 7 -200 10 -225 3 -5 -1 -12
-1 -15 0 -14 6 -173 4 -176 -2 -3 -4 6 -12 18 -19 12 -7 28 -17 34 -23 6 -6
37 -29 68 -51 32 -22 108 -77 169 -122 62 -45 127 -92 145 -105 18 -13 39 -28
45 -33 15 -13 214 -157 235 -170 8 -5 23 -16 31 -22 20 -15 159 -118 186 -137
91 -65 151 -111 153 -118 2 -4 8 -8 13 -8 9 0 77 -47 116 -80 12 -10 80 -59
123 -88 14 -9 27 -19 30 -22 3 -3 28 -22 55 -41 28 -18 58 -42 67 -52 9 -10
18 -17 20 -16 2 2 21 -11 44 -27 l41 -29 -24 -75 c-13 -41 -26 -83 -28 -93 -2
-9 -7 -22 -10 -27 -3 -5 -8 -20 -11 -32 -7 -33 -12 -52 -14 -58 -1 -3 -2 -8
-1 -12 0 -5 -4 -8 -9 -8 -6 0 -10 -10 -10 -23 0 -13 -3 -27 -7 -31 -4 -3 -8
-12 -9 -20 -3 -21 -48 -161 -54 -166 -3 -3 -6 -9 -6 -15 -2 -14 -103 -334
-119 -375 -7 -19 -37 -109 -65 -200 -29 -91 -54 -172 -58 -180 -7 -21 -8 -21
-17 -55 -4 -16 -12 -36 -18 -42 -5 -7 -7 -13 -3 -13 3 0 -1 -17 -8 -37 -23
-61 -136 -413 -136 -424 0 -10 12 -2 51 34 10 9 19 15 19 12 0 -6 134 96 142
109 4 6 8 7 8 3 0 -4 6 -3 13 3 6 6 46 36 87 66 41 30 82 60 90 67 8 7 26 20
40 29 79 53 401 289 418 305 7 7 16 13 20 13 4 0 21 11 37 25 17 13 35 28 40
33 6 5 24 17 40 28 16 10 68 47 115 82 47 35 110 81 140 103 30 22 96 70 147
107 50 37 102 74 114 82 12 8 35 25 50 38 l29 24 32 -23 c18 -13 39 -29 46
-36 7 -7 26 -20 42 -30 17 -9 30 -21 30 -25 0 -4 5 -8 10 -8 6 0 16 -4 23 -10
53 -43 118 -90 126 -90 5 0 11 -4 13 -8 2 -4 44 -37 93 -72 50 -36 92 -67 95
-71 3 -3 25 -19 50 -36 25 -17 56 -40 69 -52 13 -12 30 -21 38 -21 8 0 11 -4
8 -10 -3 -6 -1 -10 4 -10 9 0 211 -143 266 -187 6 -5 84 -62 174 -127 90 -64
169 -122 175 -127 22 -18 143 -105 184 -133 23 -16 42 -33 42 -37 0 -5 6 -9
13 -9 7 0 23 -9 35 -20 12 -11 25 -20 30 -20 5 0 -7 46 -25 103 -19 56 -36
109 -38 117 -2 8 -17 57 -35 109 -18 52 -33 99 -35 105 -1 6 -5 19 -8 29 -4 9
-10 25 -14 35 -3 9 -7 22 -9 29 -4 19 -25 86 -34 108 -4 11 -18 54 -31 95 -12
41 -25 80 -28 85 -3 6 -6 15 -7 21 -2 11 -158 497 -172 534 -3 8 -6 17 -7 20
0 3 -11 37 -24 75 -13 39 -24 75 -26 80 -1 6 -5 18 -9 27 -4 9 -9 22 -10 30
-2 7 -6 20 -9 28 -3 8 -23 69 -44 136 l-39 120 50 34 c28 19 65 45 81 57 17
13 39 29 50 38 11 8 58 43 105 77 47 35 90 65 96 68 11 5 49 33 104 78 15 12
33 22 39 22 6 0 11 4 11 8 0 4 12 15 28 24 15 9 36 25 48 36 11 11 35 27 52
36 18 9 32 20 32 24 0 4 15 16 33 27 17 10 37 23 42 27 21 17 84 64 105 78 12
8 51 36 86 63 35 26 68 47 74 47 5 0 10 3 10 8 0 4 17 18 38 32 20 14 39 27
42 30 3 3 64 48 135 100 72 52 132 98 133 102 2 5 8 8 14 8 11 0 91 60 96 72
2 5 9 8 15 8 17 1 80 57 70 62 -14 7 -408 2 -420 -5 -6 -4 -14 -4 -16 0 -6 10
-208 9 -225 -1 -6 -4 -12 -4 -12 1 0 10 -211 10 -228 -1 -6 -4 -12 -4 -12 1 0
10 -211 10 -227 0 -6 -4 -14 -4 -16 0 -6 10 -528 10 -543 0 -6 -3 -14 -3 -18
0 -4 4 -61 7 -128 8 l-121 0 -39 115 c-21 63 -40 124 -42 135 -3 11 -14 43
-24 72 -11 28 -17 54 -14 57 3 3 0 6 -7 6 -7 0 -9 5 -6 10 4 6 2 16 -3 23 -6
7 -10 14 -10 17 1 5 -19 73 -29 100 -3 8 -7 20 -8 25 -3 11 -75 232 -142 435
-25 74 -46 142 -48 150 -2 8 -4 16 -5 18 -2 1 -3 5 -5 10 -1 4 -4 14 -7 22 -3
8 -13 40 -23 70 -9 30 -19 62 -22 70 -7 17 -12 33 -16 53 -1 6 -5 17 -8 22 -5
8 -29 81 -54 165 -1 3 -5 19 -10 35 -4 17 -10 35 -14 40 -3 6 -7 17 -8 25 -10
50 -72 212 -76 200z"/>
</g>
</svg>
