<svg xmlns="http://www.w3.org/2000/svg" version="1.1" xmlns:xlink="http://www.w3.org/1999/xlink" width="512" height="512" x="0" y="0" viewBox="0 0 682.667 682.667" style="enable-background:new 0 0 512 512" xml:space="preserve" class=""><g><defs><clipPath id="a" clipPathUnits="userSpaceOnUse"><path d="M0 512h512V0H0Z" fill="#ffffff" opacity="1" data-original="#000000" class=""></path></clipPath></defs><g clip-path="url(#a)" transform="matrix(1.33333 0 0 -1.33333 0 682.667)"><path d="M0 0a9.592 9.592 0 0 0-4.41-5.5l-12.54-7.23a9.678 9.678 0 0 0-8.44-.61c-3.71 1.5-9.31 3.18-13.9 4.46a9.72 9.72 0 0 1-11.01-4.49l-6.78-11.71a9.697 9.697 0 0 1 1.62-11.79c3.4-3.32 7.65-7.31 10.8-9.76a9.648 9.648 0 0 0 3.69-7.61v-14.43c0-2.97-1.35-5.79-3.69-7.61-3.15-2.46-7.4-6.44-10.8-9.77a9.683 9.683 0 0 1-1.62-11.78l6.78-11.71a9.72 9.72 0 0 1 11.01-4.49c4.59 1.28 10.19 2.96 13.9 4.46 2.76 1.11 5.87.87 8.44-.61l12.54-7.23a9.65 9.65 0 0 0 4.76-7c.56-3.95 1.89-9.6 3.07-14.2a9.724 9.724 0 0 1 9.41-7.29h13.58c4.43 0 8.29 3 9.401 7.29 1.189 4.6 2.519 10.25 3.079 14.2.41 2.94 2.18 5.52 4.75 7l12.55 7.23c2.57 1.48 5.68 1.72 8.43.61 3.71-1.5 9.31-3.18 13.91-4.46 4.26-1.18 8.79.66 11.01 4.49l6.78 11.71a9.683 9.683 0 0 1-1.62 11.78c-3.4 3.33-7.65 7.31-10.8 9.77-2.339 1.82-3.69 4.64-3.69 7.61v14.43c0 2.97 1.351 5.78 3.69 7.61.93.72 1.96 1.58 3.04 2.53M-.381-88.173a33.323 33.323 0 0 1 19.998-6.624c18.46 0 33.424 14.927 33.424 33.341S38.077-28.115 19.617-28.115c-18.459 0-33.424-14.927-33.424-33.341" style="stroke-width:15;stroke-linecap:round;stroke-linejoin:round;stroke-miterlimit:10;stroke-dasharray:none;stroke-opacity:1" transform="translate(73.67 163.11)" fill="none" stroke="#ffffff" stroke-width="15" stroke-linecap="round" stroke-linejoin="round" stroke-miterlimit="10" stroke-dasharray="none" stroke-opacity="" data-original="#000000" class="" opacity="1"></path><path d="m0 0-55.824 55.824a6 6 0 0 0 0 8.486l33.941 33.94a5.998 5.998 0 0 0 8.485 0L87.011-2.159a6 6 0 0 0 0-8.485L53.07-44.585a6 6 0 0 0-8.485 0L22.599-22.599" style="stroke-width:15;stroke-linecap:round;stroke-linejoin:round;stroke-miterlimit:10;stroke-dasharray:none;stroke-opacity:1" transform="translate(415.731 53.842)" fill="none" stroke="#ffffff" stroke-width="15" stroke-linecap="round" stroke-linejoin="round" stroke-miterlimit="10" stroke-dasharray="none" stroke-opacity="" data-original="#000000" class="" opacity="1"></path><path d="m0 0 36.027-36.037-21.211-21.21-35.838 35.83" style="stroke-width:15;stroke-linecap:round;stroke-linejoin:round;stroke-miterlimit:10;stroke-dasharray:none;stroke-opacity:1" transform="translate(351.453 181.767)" fill="none" stroke="#ffffff" stroke-width="15" stroke-linecap="round" stroke-linejoin="round" stroke-miterlimit="10" stroke-dasharray="none" stroke-opacity="" data-original="#000000" class="" opacity="1"></path><path d="m0 0-42.427-42.427-21.213 21.214 42.427 42.426z" style="stroke-width:15;stroke-linecap:round;stroke-linejoin:round;stroke-miterlimit:10;stroke-dasharray:none;stroke-opacity:1" transform="translate(442.285 112.142)" fill="none" stroke="#ffffff" stroke-width="15" stroke-linecap="round" stroke-linejoin="round" stroke-miterlimit="10" stroke-dasharray="none" stroke-opacity="" data-original="#000000" class="" opacity="1"></path><path d="M0 0c-25.527 12.265-54.139 19.137-84.355 19.137-107.701 0-195-87.3-195-195s87.299-195 195-195c104.24 0 189.37 81.79 194.73 184.69" style="stroke-width:15;stroke-linecap:round;stroke-linejoin:round;stroke-miterlimit:10;stroke-dasharray:none;stroke-opacity:1" transform="translate(286.856 485.363)" fill="none" stroke="#ffffff" stroke-width="15" stroke-linecap="round" stroke-linejoin="round" stroke-miterlimit="10" stroke-dasharray="none" stroke-opacity="" data-original="#000000" class="" opacity="1"></path><path d="M0 0a196.12 196.12 0 0 1-39.793 37.191" style="stroke-width:15;stroke-linecap:round;stroke-linejoin:round;stroke-miterlimit:10;stroke-dasharray:none;stroke-opacity:1" transform="translate(354.24 432)" fill="none" stroke="#ffffff" stroke-width="15" stroke-linecap="round" stroke-linejoin="round" stroke-miterlimit="10" stroke-dasharray="none" stroke-opacity="" data-original="#000000" class="" opacity="1"></path><path d="M0 0a193.676 193.676 0 0 0 19.85-52.8" style="stroke-width:15;stroke-linecap:round;stroke-linejoin:round;stroke-miterlimit:10;stroke-dasharray:none;stroke-opacity:1" transform="translate(373.23 403.79)" fill="none" stroke="#ffffff" stroke-width="15" stroke-linecap="round" stroke-linejoin="round" stroke-miterlimit="10" stroke-dasharray="none" stroke-opacity="" data-original="#000000" class="" opacity="1"></path><path d="M0 0a165.02 165.02 0 0 0 1.74-23.99c0-90.98-74.019-165-165-165-90.98 0-165 74.02-165 165s74.02 165 165 165c47.941 0 91.17-20.55 121.35-53.31" style="stroke-width:15;stroke-linecap:round;stroke-linejoin:round;stroke-miterlimit:10;stroke-dasharray:none;stroke-opacity:1" transform="translate(365.76 333.49)" fill="none" stroke="#ffffff" stroke-width="15" stroke-linecap="round" stroke-linejoin="round" stroke-miterlimit="10" stroke-dasharray="none" stroke-opacity="" data-original="#000000" class="" opacity="1"></path><path d="M0 0c0 18.414-14.964 33.342-33.424 33.342-18.459 0-33.424-14.928-33.424-33.342 0-18.414 14.965-33.341 33.424-33.341C-14.964-33.341 0-18.414 0 0Zm-14.154-62.952c-.557-3.948-1.888-9.603-3.075-14.198a9.717 9.717 0 0 0-9.407-7.294h-13.575a9.717 9.717 0 0 0-9.407 7.294c-1.188 4.595-2.518 10.25-3.074 14.198-.415 2.942-2.183 5.517-4.757 7l-12.543 7.224c-2.572 1.481-5.683 1.722-8.435.612-3.714-1.498-9.311-3.182-13.906-4.456a9.714 9.714 0 0 0-11.01 4.488l-6.778 11.711a9.692 9.692 0 0 0 1.616 11.784c3.4 3.327 7.65 7.31 10.801 9.765 2.342 1.825 3.691 4.64 3.691 7.609v14.43c0 2.969-1.349 5.784-3.691 7.609-3.151 2.456-7.401 6.439-10.801 9.766a9.69 9.69 0 0 0-1.616 11.783l6.778 11.711a9.713 9.713 0 0 0 11.01 4.489c4.595-1.274 10.192-2.959 13.906-4.456 2.752-1.11 5.863-.87 8.435.612l12.543 7.224c2.574 1.482 4.342 4.058 4.757 7 .556 3.948 1.886 9.603 3.074 14.198a9.718 9.718 0 0 0 9.407 7.294h13.575a9.718 9.718 0 0 0 9.407-7.294c1.187-4.595 2.518-10.25 3.075-14.198a9.646 9.646 0 0 1 4.756-7l12.544-7.224c2.571-1.482 5.682-1.722 8.434-.612 3.713 1.497 9.311 3.182 13.905 4.456a9.713 9.713 0 0 0 11.01-4.489l6.779-11.711a9.692 9.692 0 0 0-1.617-11.783c-3.398-3.327-7.649-7.31-10.801-9.766-2.341-1.825-3.691-4.64-3.691-7.609v-14.43c0-2.969 1.35-5.784 3.691-7.609 3.152-2.455 7.403-6.438 10.801-9.765a9.693 9.693 0 0 0 1.617-11.784l-6.779-11.711a9.714 9.714 0 0 0-11.01-4.488c-4.594 1.274-10.192 2.958-13.905 4.456-2.752 1.11-5.863.869-8.434-.612l-12.544-7.224a9.648 9.648 0 0 1-4.756-7z" style="stroke-width:15;stroke-linecap:round;stroke-linejoin:round;stroke-miterlimit:10;stroke-dasharray:none;stroke-opacity:1" transform="translate(433.282 383.64)" fill="none" stroke="#ffffff" stroke-width="15" stroke-linecap="round" stroke-linejoin="round" stroke-miterlimit="10" stroke-dasharray="none" stroke-opacity="" data-original="#000000" class="" opacity="1"></path><path d="M0 0h27.433l25.185 45.109 33.189-94.071L129.32 68.376 156.068 0h48.616" style="stroke-width:15;stroke-linecap:round;stroke-linejoin:round;stroke-miterlimit:10;stroke-dasharray:none;stroke-opacity:1" transform="translate(96.248 271.308)" fill="none" stroke="#ffffff" stroke-width="15" stroke-linecap="round" stroke-linejoin="round" stroke-miterlimit="10" stroke-dasharray="none" stroke-opacity="" data-original="#000000" class="" opacity="1"></path></g></g></svg>