<svg xmlns="http://www.w3.org/2000/svg" version="1.1" xmlns:xlink="http://www.w3.org/1999/xlink" width="512" height="512" x="0" y="0" viewBox="0 0 64 64" style="enable-background:new 0 0 512 512" xml:space="preserve" class=""><g><path d="M47 59H17a2.976 2.976 0 0 1-2.122-.88A3.013 3.013 0 0 1 14 56V5a1 1 0 0 1 1-1h34a1 1 0 0 1 1 1v51a3.015 3.015 0 0 1-.88 2.121A2.974 2.974 0 0 1 47 59ZM16 6v50a1.002 1.002 0 0 0 1 1h30a.993.993 0 0 0 .706-.293A1.005 1.005 0 0 0 48 56V6Z" fill="#ffffff" opacity="1" data-original="#000000" class=""></path><path d="M42.646 64H21.354a2.987 2.987 0 0 1-2.786-1.885l-1.497-3.743A1 1 0 0 1 18 57h28a1 1 0 0 1 .929 1.372l-1.497 3.742A2.987 2.987 0 0 1 42.646 64Zm-23.17-5 .95 2.372a.995.995 0 0 0 .928.628h21.292a.996.996 0 0 0 .928-.629l.95-2.371ZM49 54H15a1 1 0 0 1 0-2h34a1 1 0 0 1 0 2ZM37 50H27a1 1 0 0 1-1-1v-4a1 1 0 0 1 1-1h10a1 1 0 0 1 1 1v4a1 1 0 0 1-1 1Zm-9-2h8v-2h-8ZM48 6H16a1 1 0 0 1-1-1 5.005 5.005 0 0 1 4.998-5H44a5.006 5.006 0 0 1 5 5 1 1 0 0 1-1 1ZM17.172 3.998 46.829 4A3.006 3.006 0 0 0 44 2H19.998a3.002 3.002 0 0 0-2.826 1.998ZM32 24a7 7 0 1 1 7-7 7.008 7.008 0 0 1-7 7Zm0-12a5 5 0 1 0 5 5 5.006 5.006 0 0 0-5-5Z" fill="#ffffff" opacity="1" data-original="#000000" class=""></path><path d="M32 18a1 1 0 0 1-.707-1.707l1.414-1.414a1 1 0 1 1 1.414 1.414l-1.414 1.414A.997.997 0 0 1 32 18Z" fill="#ffffff" opacity="1" data-original="#000000" class=""></path></g></svg>